# xmcd
#
# Track frame offsets:
# 150
# 18361
# 43106
# 64241
# 86360
# 106199
#
# Disc length: 1688 seconds
#
#
# Revision: 0
# Processed by: cddbd v1.5.2PL0 Copyright (c) Steve Scherf et al.
# Submitted via: FreeRIP 2.951 
#
DISCID=42069606
DTITLE=Joe - Make Sure You're Home For Christmas
DYEAR=1900
DGENRE=Country
TTITLE0=God Rest Ye Merry Gentlemen
TTITLE1=Have Yourself A Merry Little Christmas
TTITLE2=The Christmas Song
TTITLE3=Grown Up Christmas List
TTITLE4=It Ain't Christmas
TTITLE5=Make Sure You're Home
EXTD=
EXTT0=
EXTT1=
EXTT2=
EXTT3=
EXTT4=
EXTT5=
PLAYORDER=
